<svg width="51" height="50" viewBox="0 0 51 50" fill="none" xmlns="http://www.w3.org/2000/svg">
<path d="M8.85686 43.5791H42.144C42.6846 43.579 43.216 43.4386 43.6861 43.1718C44.1563 42.9049 44.5492 42.5205 44.8264 42.0564C45.1036 41.5922 45.2556 41.0641 45.2676 40.5236C45.2797 39.9831 45.1512 39.4487 44.8949 38.9727L28.2524 8.06445C27.0717 5.87305 23.9291 5.87305 22.7485 8.06445L6.10589 38.9727C5.84959 39.4487 5.72118 39.9831 5.73319 40.5236C5.74521 41.0641 5.89725 41.5922 6.17445 42.0564C6.45165 42.5205 6.84453 42.9049 7.31469 43.1718C7.78486 43.4386 8.31622 43.579 8.85686 43.5791Z" stroke="#EC1C24" stroke-width="2" stroke-linecap="round" stroke-linejoin="round"/>
<path d="M24.9398 19.0811L25.5004 30.9951L26.0599 19.086C26.0634 19.0098 26.0513 18.9338 26.0244 18.8625C25.9974 18.7912 25.9563 18.7261 25.9033 18.6713C25.8504 18.6165 25.7869 18.573 25.7166 18.5435C25.6463 18.5141 25.5707 18.4993 25.4945 18.5C25.4196 18.5008 25.3457 18.5165 25.277 18.5463C25.2083 18.5761 25.1462 18.6193 25.0945 18.6735C25.0428 18.7276 25.0025 18.7916 24.9759 18.8616C24.9494 18.9316 24.9371 19.0063 24.9398 19.0811Z" stroke="#EC1C24" stroke-linecap="round" stroke-linejoin="round"/>
<path d="M25.5 38.7939C25.1137 38.7939 24.7361 38.6794 24.4149 38.4648C24.0937 38.2502 23.8434 37.9451 23.6955 37.5882C23.5477 37.2314 23.509 36.8387 23.5844 36.4598C23.6598 36.0809 23.8458 35.7329 24.1189 35.4598C24.3921 35.1866 24.7401 35.0006 25.119 34.9252C25.4978 34.8499 25.8905 34.8885 26.2474 35.0364C26.6043 35.1842 26.9094 35.4345 27.124 35.7557C27.3386 36.0769 27.4531 36.4545 27.4531 36.8408C27.4531 37.3588 27.2474 37.8556 26.8811 38.2219C26.5148 38.5882 26.018 38.7939 25.5 38.7939Z" fill="#EC1C24"/>
</svg>
