<svg width="42" height="43" viewBox="0 0 42 43" fill="none" xmlns="http://www.w3.org/2000/svg">
<path d="M22.9688 30.0312C22.9688 30.4206 22.8533 30.8013 22.637 31.125C22.4206 31.4488 22.1132 31.7011 21.7534 31.8501C21.3937 31.9991 20.9978 32.0381 20.6159 31.9622C20.234 31.8862 19.8832 31.6987 19.6079 31.4234C19.3326 31.148 19.1451 30.7972 19.0691 30.4153C18.9931 30.0334 19.0321 29.6376 19.1811 29.2778C19.3301 28.9181 19.5825 28.6106 19.9062 28.3943C20.23 28.178 20.6106 28.0625 21 28.0625C21.5222 28.0625 22.0229 28.2699 22.3921 28.6391C22.7613 29.0083 22.9688 29.5091 22.9688 30.0312ZM21 12.3125C17.3808 12.3125 14.4375 14.9621 14.4375 18.2188V18.875C14.4375 19.2231 14.5758 19.5569 14.8219 19.8031C15.0681 20.0492 15.4019 20.1875 15.75 20.1875C16.0981 20.1875 16.4319 20.0492 16.6781 19.8031C16.9242 19.5569 17.0625 19.2231 17.0625 18.875V18.2188C17.0625 16.4141 18.8295 14.9375 21 14.9375C23.1706 14.9375 24.9375 16.4141 24.9375 18.2188C24.9375 20.0234 23.1706 21.5 21 21.5C20.6519 21.5 20.3181 21.6383 20.0719 21.8844C19.8258 22.1306 19.6875 22.4644 19.6875 22.8125V24.125C19.6875 24.4731 19.8258 24.8069 20.0719 25.0531C20.3181 25.2992 20.6519 25.4375 21 25.4375C21.3481 25.4375 21.6819 25.2992 21.9281 25.0531C22.1742 24.8069 22.3125 24.4731 22.3125 24.125V24.0069C25.305 23.4573 27.5625 21.0702 27.5625 18.2188C27.5625 14.9621 24.6192 12.3125 21 12.3125ZM38.0625 21.5C38.0625 24.8746 37.0618 28.1735 35.187 30.9794C33.3121 33.7853 30.6473 35.9723 27.5295 37.2637C24.4118 38.5551 20.9811 38.893 17.6713 38.2346C14.3615 37.5763 11.3212 35.9512 8.935 33.565C6.54876 31.1788 4.92372 28.1385 4.26536 24.8287C3.607 21.5189 3.94489 18.0882 5.23631 14.9705C6.52773 11.8527 8.71468 9.1879 11.5206 7.31305C14.3265 5.4382 17.6254 4.4375 21 4.4375C25.5238 4.44228 29.8609 6.24146 33.0597 9.44027C36.2585 12.6391 38.0577 16.9762 38.0625 21.5ZM35.4375 21.5C35.4375 18.6445 34.5908 15.8532 33.0044 13.479C31.4179 11.1047 29.1631 9.25423 26.525 8.16149C23.8869 7.06875 20.984 6.78284 18.1834 7.33991C15.3828 7.89699 12.8103 9.27203 10.7912 11.2911C8.77203 13.3103 7.39699 15.8828 6.83992 18.6834C6.28285 21.484 6.56876 24.3869 7.6615 27.025C8.75424 29.6631 10.6047 31.9179 12.979 33.5043C15.3532 35.0908 18.1445 35.9375 21 35.9375C24.8277 35.9332 28.4974 34.4107 31.2041 31.7041C33.9107 28.9974 35.4332 25.3277 35.4375 21.5Z" fill="#0075FF"/>
</svg>
